<?xml version="1.0" encoding="UTF-8" standalone="no"?>
<svg
   viewBox="0 0 536 116"
   version="1.1"
   id="svg1"
   sodipodi:docname="swagger_editor.svg"
   inkscape:version="1.3.2 (091e20e, 2023-11-25)"
   xmlns:inkscape="http://www.inkscape.org/namespaces/inkscape"
   xmlns:sodipodi="http://sodipodi.sourceforge.net/DTD/sodipodi-0.dtd"
   xmlns="http://www.w3.org/2000/svg"
   xmlns:svg="http://www.w3.org/2000/svg">
  <sodipodi:namedview
     id="namedview1"
     pagecolor="#ffffff"
     bordercolor="#000000"
     borderopacity="0.25"
     inkscape:showpageshadow="2"
     inkscape:pageopacity="0.0"
     inkscape:pagecheckerboard="0"
     inkscape:deskcolor="#d1d1d1"
     showguides="false"
     inkscape:zoom="2.0344828"
     inkscape:cx="267.88136"
     inkscape:cy="63.652542"
     inkscape:window-width="1472"
     inkscape:window-height="916"
     inkscape:window-x="0"
     inkscape:window-y="38"
     inkscape:window-maximized="1"
     inkscape:current-layer="SWE_TM-logo-on-dark" />
  <defs
     id="defs1">
    <style
       id="style1">
      .cls-1 {
        clip-path: url(#clip-SWE_TM-logo-on-dark);
      }

      .cls-2 {
        fill: #fff;
      }

      .cls-3 {
        fill: #85ea2d;
      }

      .cls-4 {
        fill: #173647;
      }
    </style>
    <clipPath
       id="clip-SWE_TM-logo-on-dark">
      <rect
         width="536"
         height="116"
         id="rect1" />
    </clipPath>
  </defs>
  <g
     id="SWE_TM-logo-on-dark"
     class="cls-1"
     clip-path="url(#clip-SWE_TM-logo-on-dark)">
    <path
       id="Path_3002"
       data-name="Path 3002"
       class="cls-2"
       d="m 528.911,70.857 h -0.7 v -3.681 h -1.26 v -0.6 h 3.219 v 0.6 h -1.26 z"
       style="fill:#000000" />
    <path
       id="Path_3003"
       data-name="Path 3003"
       class="cls-2"
       d="m 532.979,70.857 -1.242,-3.576 h -0.023 q 0.049,0.8 0.05,1.494 v 2.082 h -0.636 v -4.283 h 0.987 l 1.19,3.408 h 0.017 l 1.225,-3.408 h 0.99 v 4.283 h -0.674 V 68.74 q 0,-0.319 0.016,-0.832 0.016,-0.513 0.028,-0.621 h -0.023 l -1.286,3.57 z"
       style="fill:#000000" />
    <path
       id="Path_3004"
       data-name="Path 3004"
       class="cls-3"
       d="M 50.027,97.669 A 47.642,47.642 0 1 1 97.67,50.027 47.642,47.642 0 0 1 50.027,97.669 Z" />
    <path
       id="Path_3005"
       data-name="Path 3005"
       class="cls-3"
       d="M 50.027,4.769 A 45.258,45.258 0 1 1 4.769,50.027 45.258,45.258 0 0 1 50.027,4.769 M 50.027,0 A 50.027,50.027 0 1 0 100.054,50.027 50.027,50.027 0 0 0 50.027,0 Z" />
    <path
       id="Path_3006"
       data-name="Path 3006"
       class="cls-4"
       d="m 31.5,33.854 c -0.154,1.712 0.058,3.482 -0.057,5.213 a 42.665,42.665 0 0 1 -0.693,5.156 9.532,9.532 0 0 1 -4.1,5.829 c 4.078,2.654 4.539,6.771 4.809,10.946 0.135,2.25 0.077,4.52 0.308,6.752 0.173,1.731 0.846,2.174 2.636,2.231 0.731,0.02 1.48,0 2.327,0 v 5.349 c -5.29,0.9 -9.657,-0.6 -10.734,-5.079 a 30.76,30.76 0 0 1 -0.654,-5 c -0.116,-1.789 0.076,-3.578 -0.058,-5.367 -0.385,-4.906 -1.02,-6.56 -5.713,-6.791 v -6.1 A 9.189,9.189 0 0 1 20.59,46.82 c 2.577,-0.135 3.674,-0.924 4.232,-3.463 a 29.573,29.573 0 0 0 0.481,-4.329 81.809,81.809 0 0 1 0.6,-8.406 c 0.674,-3.982 3.136,-5.906 7.234,-6.137 1.154,-0.057 2.327,0 3.655,0 v 5.464 c -0.558,0.038 -1.039,0.115 -1.539,0.115 -3.328,-0.115 -3.502,1.02 -3.753,3.79 z m 6.407,12.658 H 37.83 a 3.515,3.515 0 1 0 -0.347,7.021 h 0.231 a 3.461,3.461 0 0 0 3.655,-3.251 V 50.09 a 3.523,3.523 0 0 0 -3.461,-3.578 z m 12.061,0 a 3.373,3.373 0 0 0 -3.482,3.251 1.79,1.79 0 0 0 0.02,0.327 3.3,3.3 0 0 0 3.578,3.443 3.264,3.264 0 0 0 3.444,-3.558 3.309,3.309 0 0 0 -3.559,-3.463 z m 12.351,0 a 3.592,3.592 0 0 0 -3.655,3.482 3.529,3.529 0 0 0 3.536,3.539 h 0.039 c 1.769,0.309 3.559,-1.4 3.674,-3.462 A 3.571,3.571 0 0 0 62.32,46.512 Z M 79.267,46.8 c -2.232,-0.1 -3.348,-0.846 -3.9,-2.962 a 21.523,21.523 0 0 1 -0.635,-4.136 c -0.154,-2.578 -0.135,-5.175 -0.308,-7.753 -0.4,-6.117 -4.828,-8.252 -11.254,-7.195 v 5.31 c 1.019,0 1.808,0 2.6,0.019 1.366,0.019 2.4,0.539 2.539,2.059 0.136,1.385 0.136,2.789 0.27,4.193 0.269,2.79 0.423,5.618 0.9,8.369 a 8.715,8.715 0 0 0 3.921,5.348 c -3.4,2.289 -4.4,5.559 -4.578,9.234 -0.1,2.52 -0.154,5.059 -0.289,7.6 -0.115,2.308 -0.923,3.058 -3.251,3.116 -0.653,0.019 -1.288,0.077 -2.019,0.115 v 5.445 c 1.366,0 2.616,0.077 3.866,0 3.886,-0.231 6.233,-2.117 7,-5.887 A 48.9,48.9 0 0 0 74.7,63.4 c 0.135,-1.923 0.116,-3.866 0.309,-5.771 0.288,-2.982 1.654,-4.213 4.635,-4.4 a 4.037,4.037 0 0 0 0.828,-0.192 v -6.1 c -0.5,-0.058 -0.844,-0.115 -1.209,-0.135 z" />
    <path
       id="Path_3007"
       data-name="Path 3007"
       class="cls-2"
       d="m 151.972,58.122 a 11.231,11.231 0 0 1 -4.383,9.425 q -4.385,3.381 -11.9,3.381 -8.14,0 -12.523,-2.1 V 63.7 a 32.95,32.95 0 0 0 6.137,1.879 32.279,32.279 0 0 0 6.574,0.689 q 5.323,0 8.015,-2.02 a 6.629,6.629 0 0 0 2.693,-5.62 7.216,7.216 0 0 0 -0.955,-3.9 8.868,8.868 0 0 0 -3.194,-2.8 44.614,44.614 0 0 0 -6.809,-2.911 Q 129.239,46.731 126.5,43.6 A 11.959,11.959 0 0 1 123.761,35.429 10.164,10.164 0 0 1 127.739,27 q 3.976,-3.131 10.52,-3.131 a 31,31 0 0 1 12.555,2.5 L 149.154,31 a 28.377,28.377 0 0 0 -11.02,-2.38 10.665,10.665 0 0 0 -6.607,1.816 5.985,5.985 0 0 0 -2.379,5.041 7.733,7.733 0 0 0 0.876,3.9 8.259,8.259 0 0 0 2.959,2.786 36.732,36.732 0 0 0 6.371,2.8 q 7.2,2.568 9.91,5.509 a 10.843,10.843 0 0 1 2.708,7.647 z"
       style="fill:#000000" />
    <path
       id="Path_3008"
       data-name="Path 3008"
       class="cls-2"
       d="M 184.988,70.3 178.7,50.17 q -0.6,-1.848 -2.223,-8.391 h -0.25 q -1.254,5.479 -2.192,8.453 L 167.549,70.3 h -6.012 l -9.361,-34.316 h 5.448 q 3.318,12.932 5.056,19.694 a 79.655,79.655 0 0 1 1.988,9.111 h 0.251 q 0.343,-1.784 1.111,-4.618 0.768,-2.834 1.331,-4.493 l 6.293,-19.694 h 5.635 l 6.137,19.694 a 66.551,66.551 0 0 1 2.38,9.049 h 0.25 a 33.338,33.338 0 0 1 0.673,-3.476 q 0.547,-2.347 6.528,-25.267 h 5.385 L 191.156,70.3 Z"
       style="fill:#000000" />
    <path
       id="Path_3009"
       data-name="Path 3009"
       class="cls-2"
       d="m 224.815,70.3 -1.033,-4.885 h -0.251 a 14.446,14.446 0 0 1 -5.119,4.368 15.6,15.6 0 0 1 -6.372,1.143 q -5.1,0 -8,-2.63 -2.9,-2.63 -2.9,-7.484 0,-10.394 16.625,-10.894 l 5.824,-0.189 V 47.6 q 0,-4.04 -1.738,-5.964 -1.738,-1.924 -5.551,-1.923 a 22.644,22.644 0 0 0 -9.706,2.63 L 205,38.366 a 24.492,24.492 0 0 1 5.558,-2.16 24.094,24.094 0 0 1 6.058,-0.782 q 6.137,0 9.1,2.723 2.963,2.723 2.959,8.736 V 70.3 Z m -11.741,-3.663 a 10.548,10.548 0 0 0 7.624,-2.662 9.846,9.846 0 0 0 2.771,-7.452 v -3.1 l -5.2,0.219 q -6.2,0.219 -8.939,1.925 a 5.81,5.81 0 0 0 -2.739,5.307 5.357,5.357 0 0 0 1.706,4.29 7.082,7.082 0 0 0 4.777,1.475 z"
       style="fill:#000000" />
    <path
       id="Path_3010"
       data-name="Path 3010"
       class="cls-2"
       d="m 264.3,35.986 v 3.288 l -6.356,0.751 a 11.175,11.175 0 0 1 2.254,6.858 10.144,10.144 0 0 1 -3.444,8.046 q -3.444,3.006 -9.455,3.006 a 15.655,15.655 0 0 1 -2.881,-0.251 Q 241.1,59.439 241.1,62.1 a 2.243,2.243 0 0 0 1.158,2.082 8.459,8.459 0 0 0 3.976,0.673 h 6.074 q 5.572,0 8.563,2.348 a 8.159,8.159 0 0 1 2.99,6.825 9.742,9.742 0 0 1 -4.571,8.688 q -4.57,2.991 -13.337,2.99 -6.732,0 -10.379,-2.5 a 8.088,8.088 0 0 1 -3.648,-7.076 7.943,7.943 0 0 1 2,-5.416 10.209,10.209 0 0 1 5.635,-3.1 5.435,5.435 0 0 1 -2.207,-1.847 4.887,4.887 0 0 1 -0.892,-2.912 5.524,5.524 0 0 1 1,-3.287 10.517,10.517 0 0 1 3.162,-2.724 9.266,9.266 0 0 1 -4.336,-3.726 10.949,10.949 0 0 1 -1.675,-6.011 q 0,-5.635 3.381,-8.689 3.381,-3.054 9.581,-3.053 a 17.449,17.449 0 0 1 4.853,0.626 z m -27.368,40.077 a 4.658,4.658 0 0 0 2.349,4.226 12.969,12.969 0 0 0 6.731,1.44 q 6.543,0 9.691,-1.956 a 5.992,5.992 0 0 0 3.146,-5.307 q 0,-2.788 -1.722,-3.867 -1.722,-1.079 -6.481,-1.08 h -6.231 a 8.207,8.207 0 0 0 -5.51,1.69 6.044,6.044 0 0 0 -1.973,4.854 z m 2.818,-29.086 a 6.985,6.985 0 0 0 2.036,5.447 8.121,8.121 0 0 0 5.667,1.847 q 7.607,0 7.607,-7.388 0,-7.734 -7.7,-7.735 a 7.628,7.628 0 0 0 -5.635,1.973 q -1.974,1.979 -1.975,5.856 z"
       style="fill:#000000" />
    <path
       id="Path_3011"
       data-name="Path 3011"
       class="cls-2"
       d="m 298.835,35.986 v 3.288 l -6.356,0.751 a 11.166,11.166 0 0 1 2.255,6.858 10.147,10.147 0 0 1 -3.444,8.046 q -3.444,3.006 -9.456,3.006 a 15.644,15.644 0 0 1 -2.88,-0.251 q -3.32,1.755 -3.319,4.415 a 2.242,2.242 0 0 0 1.159,2.082 8.456,8.456 0 0 0 3.976,0.673 h 6.074 q 5.573,0 8.563,2.348 a 8.159,8.159 0 0 1 2.99,6.825 9.742,9.742 0 0 1 -4.571,8.688 q -4.572,2.991 -13.338,2.99 -6.732,0 -10.379,-2.5 a 8.087,8.087 0 0 1 -3.647,-7.076 7.942,7.942 0 0 1 2,-5.416 10.212,10.212 0 0 1 5.636,-3.1 5.429,5.429 0 0 1 -2.207,-1.847 4.887,4.887 0 0 1 -0.891,-2.916 5.524,5.524 0 0 1 1,-3.287 10.517,10.517 0 0 1 3.162,-2.724 9.275,9.275 0 0 1 -4.336,-3.726 10.949,10.949 0 0 1 -1.675,-6.011 q 0,-5.635 3.382,-8.689 3.382,-3.054 9.58,-3.053 a 17.439,17.439 0 0 1 4.853,0.626 z m -27.364,40.077 a 4.659,4.659 0 0 0 2.348,4.226 12.973,12.973 0 0 0 6.732,1.44 q 6.543,0 9.69,-1.956 a 5.991,5.991 0 0 0 3.147,-5.307 q 0,-2.788 -1.723,-3.867 -1.723,-1.079 -6.481,-1.08 h -6.23 a 8.2,8.2 0 0 0 -5.51,1.69 6.044,6.044 0 0 0 -1.973,4.854 z m 2.818,-29.086 a 6.985,6.985 0 0 0 2.035,5.447 8.123,8.123 0 0 0 5.667,1.847 q 7.608,0 7.608,-7.388 0,-7.734 -7.7,-7.735 a 7.628,7.628 0 0 0 -5.635,1.973 q -1.976,1.979 -1.975,5.856 z"
       style="fill:#000000" />
    <path
       id="Path_3012"
       data-name="Path 3012"
       class="cls-2"
       d="m 316.477,70.928 q -7.606,0 -12.006,-4.634 -4.4,-4.634 -4.4,-12.868 0,-8.3 4.086,-13.181 a 13.567,13.567 0 0 1 10.973,-4.885 12.94,12.94 0 0 1 10.208,4.24 q 3.762,4.246 3.762,11.2 v 3.288 h -23.643 q 0.156,6.042 3.052,9.173 2.896,3.131 8.156,3.131 a 27.629,27.629 0 0 0 10.958,-2.317 v 4.634 a 27.541,27.541 0 0 1 -5.212,1.706 29.262,29.262 0 0 1 -5.934,0.513 z m -1.408,-31.215 a 8.488,8.488 0 0 0 -6.591,2.692 12.41,12.41 0 0 0 -2.9,7.451 h 17.94 q 0,-4.914 -2.192,-7.529 a 7.712,7.712 0 0 0 -6.257,-2.614 z"
       style="fill:#000000" />
    <path
       id="Path_3013"
       data-name="Path 3013"
       class="cls-2"
       d="m 350.6,35.36 a 20.372,20.372 0 0 1 4.1,0.376 l -0.72,4.822 a 17.72,17.72 0 0 0 -3.757,-0.47 9.144,9.144 0 0 0 -7.123,3.382 12.326,12.326 0 0 0 -2.959,8.422 V 70.3 h -5.2 V 35.986 h 4.289 l 0.6,6.357 h 0.251 a 15.069,15.069 0 0 1 4.6,-5.166 10.366,10.366 0 0 1 5.919,-1.817 z"
       style="fill:#000000" />
    <path
       id="Path_3014"
       data-name="Path 3014"
       class="cls-2"
       d="M 394.454,70.3 H 368.937 V 24.527 h 25.517 v 4.729 H 374.26 V 44 h 18.973 v 4.7 H 374.26 v 16.843 h 20.194 z"
       style="fill:#000000" />
    <path
       id="Path_3015"
       data-name="Path 3015"
       class="cls-2"
       d="M 423.683,65.7 H 423.4 q -3.6,5.231 -10.77,5.229 -6.734,0 -10.473,-4.6 -3.739,-4.6 -3.742,-13.087 0,-8.484 3.757,-13.181 3.757,-4.697 10.458,-4.7 6.981,0 10.707,5.073 h 0.407 L 423.525,37.96 423.4,35.55 V 21.585 h 5.2 V 70.3 h -4.227 z m -10.394,0.877 q 5.322,0 7.718,-2.9 2.396,-2.9 2.395,-9.346 v -1.1 q 0,-7.294 -2.427,-10.41 -2.427,-3.116 -7.749,-3.115 a 7.953,7.953 0 0 0 -7,3.553 Q 403.8,46.821 403.8,53.3 q 0,6.574 2.41,9.925 a 8.166,8.166 0 0 0 7.079,3.351 z"
       style="fill:#000000" />
    <path
       id="Path_3016"
       data-name="Path 3016"
       class="cls-2"
       d="m 435.918,26.688 a 3.449,3.449 0 0 1 0.877,-2.614 3.243,3.243 0 0 1 4.351,0.016 3.385,3.385 0 0 1 0.909,2.6 3.442,3.442 0 0 1 -0.909,2.615 3.182,3.182 0 0 1 -4.351,0 3.515,3.515 0 0 1 -0.877,-2.617 z m 5.636,43.612 h -5.2 V 35.986 h 5.2 z"
       style="fill:#000000" />
    <path
       id="Path_3017"
       data-name="Path 3017"
       class="cls-2"
       d="m 461.26,66.639 a 17.07,17.07 0 0 0 2.661,-0.2 17.339,17.339 0 0 0 2.035,-0.423 v 3.976 a 9.508,9.508 0 0 1 -2.489,0.674 18.741,18.741 0 0 1 -2.959,0.266 q -9.955,0 -9.956,-10.489 V 40.025 h -4.915 v -2.5 l 4.915,-2.161 2.191,-7.326 h 3.006 v 7.952 h 9.956 v 4.039 h -9.956 v 20.2 a 6.943,6.943 0 0 0 1.472,4.759 5.117,5.117 0 0 0 4.039,1.651 z"
       style="fill:#000000" />
    <path
       id="Path_3018"
       data-name="Path 3018"
       class="cls-2"
       d="m 499.014,53.113 q 0,8.391 -4.227,13.1 -4.227,4.709 -11.68,4.712 a 15.478,15.478 0 0 1 -8.171,-2.16 14.264,14.264 0 0 1 -5.51,-6.2 21.6,21.6 0 0 1 -1.941,-9.455 q 0,-8.389 4.2,-13.072 4.2,-4.683 11.647,-4.681 7.2,0 11.443,4.79 4.243,4.79 4.239,12.966 z m -26.144,0 q 0,6.575 2.63,10.019 2.63,3.444 7.732,3.444 5.1,0 7.75,-3.429 2.65,-3.429 2.645,-10.034 0,-6.543 -2.645,-9.941 -2.645,-3.398 -7.812,-3.4 -5.1,0 -7.7,3.35 -2.6,3.35 -2.6,9.991 z"
       style="fill:#000000" />
    <path
       id="Path_3019"
       data-name="Path 3019"
       class="cls-2"
       d="m 520.726,35.36 a 20.376,20.376 0 0 1 4.1,0.376 l -0.721,4.822 a 17.712,17.712 0 0 0 -3.757,-0.47 9.145,9.145 0 0 0 -7.123,3.382 12.335,12.335 0 0 0 -2.958,8.422 V 70.3 h -5.2 V 35.986 h 4.289 l 0.6,6.357 h 0.251 a 15.078,15.078 0 0 1 4.6,-5.166 10.368,10.368 0 0 1 5.919,-1.817 z"
       style="fill:#000000" />
    <path
       id="Path_3020"
       data-name="Path 3020"
       class="cls-2"
       d="m 255.556,96.638 c 0,0 -3.43,-0.391 -4.85,-0.391 -2.058,0 -3.111,0.735 -3.111,2.18 0,1.568 0.882,1.935 3.748,2.719 3.527,0.98 4.8,1.911 4.8,4.777 0,3.675 -2.3,5.267 -5.61,5.267 a 35.667,35.667 0 0 1 -5.486,-0.662 l 0.269,-2.18 c 0,0 3.307,0.441 5.046,0.441 2.082,0 3.037,-0.931 3.037,-2.7 0,-1.421 -0.759,-1.91 -3.331,-2.523 -3.626,-0.93 -5.193,-2.033 -5.193,-4.948 0,-3.381 2.229,-4.776 5.585,-4.776 a 37.222,37.222 0 0 1 5.316,0.587 z"
       style="fill:#000000" />
    <path
       id="Path_3021"
       data-name="Path 3021"
       class="cls-2"
       d="m 262.666,94.14 h 4.728 l 3.748,13.106 3.748,-13.106 h 4.752 v 16.78 H 276.9 v -14.5 h -0.144 l -4.192,13.816 h -2.841 L 265.53,96.418 h -0.145 v 14.5 h -2.719 z"
       style="fill:#000000" />
    <path
       id="Path_3022"
       data-name="Path 3022"
       class="cls-2"
       d="M 321.756,94.14 H 334 v 2.425 h -4.728 v 14.355 h -2.743 V 96.565 h -4.777 z"
       style="fill:#000000" />
    <path
       id="Path_3023"
       data-name="Path 3023"
       class="cls-2"
       d="m 345.837,94.14 c 3.331,0 5.119,1.249 5.119,4.361 0,2.033 -0.636,3.037 -1.984,3.772 1.445,0.563 2.4,1.592 2.4,3.9 0,3.43 -2.082,4.752 -5.34,4.752 h -6.566 V 94.14 Z m -3.651,2.352 v 4.8 h 3.6 c 1.667,0 2.4,-0.832 2.4,-2.474 0,-1.617 -0.833,-2.327 -2.5,-2.327 z m 0,7.1 v 4.973 h 3.7 c 1.689,0 2.694,-0.539 2.694,-2.548 0,-1.911 -1.421,-2.425 -2.743,-2.425 z"
       style="fill:#000000" />
    <path
       id="Path_3024"
       data-name="Path 3024"
       class="cls-2"
       d="M 358.113,94.14 H 368.7 v 2.377 h -7.864 v 4.751 h 6.394 v 2.332 h -6.394 v 4.924 h 7.864 v 2.4 h -10.587 z"
       style="fill:#000000" />
    <path
       id="Path_3025"
       data-name="Path 3025"
       class="cls-2"
       d="m 378.446,94.14 h 5.414 l 4.164,16.78 h -2.743 l -1.24,-4.92 h -5.777 l -1.239,4.923 h -2.719 z m 0.362,9.456 h 4.707 l -1.737,-7.178 h -1.225 z"
       style="fill:#000000" />
    <path
       id="Path_3026"
       data-name="Path 3026"
       class="cls-2"
       d="m 396.8,105.947 v 4.973 h -2.72 V 94.14 h 6.37 c 3.7,0 5.683,2.12 5.683,5.843 0,2.376 -0.956,4.519 -2.744,5.352 l 2.769,5.585 h -2.989 l -2.425,-4.973 z m 3.65,-9.455 h -3.65 v 7.1 h 3.7 c 2.058,0 2.841,-1.85 2.841,-3.589 -0.005,-1.9 -0.935,-3.511 -2.895,-3.511 z"
       style="fill:#000000" />
    <path
       id="Path_3027"
       data-name="Path 3027"
       class="cls-2"
       d="m 289.712,94.14 h 5.413 l 4.165,16.78 h -2.744 L 295.307,106 h -5.777 l -1.239,4.923 h -2.719 z m 0.361,9.456 h 4.707 l -1.737,-7.178 h -1.224 z"
       style="fill:#000000" />
    <path
       id="Path_3028"
       data-name="Path 3028"
       class="cls-2"
       d="m 308.061,105.947 v 4.973 h -2.719 V 94.14 h 6.369 c 3.7,0 5.683,2.12 5.683,5.843 0,2.376 -0.955,4.519 -2.743,5.352 l 2.768,5.585 h -2.988 l -2.426,-4.973 z m 3.65,-9.455 h -3.65 v 7.1 h 3.7 c 2.057,0 2.841,-1.85 2.841,-3.589 -0.002,-1.903 -0.931,-3.511 -2.891,-3.511 z"
       style="fill:#000000" />
    <path
       id="Path_3029"
       data-name="Path 3029"
       class="cls-2"
       d="m 130.306,107.644 a 3.021,3.021 0 0 1 -1.18,2.536 5.115,5.115 0 0 1 -3.2,0.91 8.009,8.009 0 0 1 -3.371,-0.565 v -1.381 a 8.932,8.932 0 0 0 1.651,0.5 8.672,8.672 0 0 0 1.77,0.186 3.57,3.57 0 0 0 2.158,-0.544 1.782,1.782 0 0 0 0.724,-1.512 1.943,1.943 0 0 0 -0.257,-1.049 2.382,2.382 0 0 0 -0.859,-0.755 12.173,12.173 0 0 0 -1.833,-0.784 5.853,5.853 0 0 1 -2.457,-1.458 3.218,3.218 0 0 1 -0.737,-2.2 2.734,2.734 0 0 1 1.07,-2.266 4.44,4.44 0 0 1 2.832,-0.844 8.337,8.337 0 0 1 3.379,0.675 l -0.447,1.247 a 7.635,7.635 0 0 0 -2.966,-0.641 2.877,2.877 0 0 0 -1.778,0.489 1.613,1.613 0 0 0 -0.641,1.357 2.078,2.078 0 0 0 0.236,1.049 2.218,2.218 0 0 0 0.8,0.75 9.873,9.873 0 0 0 1.715,0.755 6.77,6.77 0 0 1 2.667,1.483 2.914,2.914 0 0 1 0.724,2.062 z"
       style="fill:#000000" />
    <path
       id="Path_3030"
       data-name="Path 3030"
       class="cls-2"
       d="m 134.147,101.686 v 5.992 a 2.41,2.41 0 0 0 0.514,1.685 2.091,2.091 0 0 0 1.609,0.556 2.627,2.627 0 0 0 2.12,-0.792 4,4 0 0 0 0.67,-2.587 v -4.854 h 1.4 v 9.236 h -1.16 l -0.2,-1.238 h -0.076 a 2.8,2.8 0 0 1 -1.192,1.045 4.019,4.019 0 0 1 -1.74,0.361 3.527,3.527 0 0 1 -2.524,-0.8 3.408,3.408 0 0 1 -0.839,-2.561 v -6.043 z"
       style="fill:#000000" />
    <path
       id="Path_3031"
       data-name="Path 3031"
       class="cls-2"
       d="m 147.906,111.09 a 4,4 0 0 1 -1.648,-0.332 3.113,3.113 0 0 1 -1.251,-1.024 h -0.1 a 12.458,12.458 0 0 1 0.1,1.534 v 3.8 h -1.4 v -13.382 h 1.137 l 0.194,1.263 h 0.068 a 3.244,3.244 0 0 1 1.256,-1.094 3.81,3.81 0 0 1 1.643,-0.337 3.414,3.414 0 0 1 2.836,1.255 6.686,6.686 0 0 1 -0.018,7.057 3.417,3.417 0 0 1 -2.817,1.26 z m -0.2,-8.385 a 2.48,2.48 0 0 0 -2.047,0.784 4.03,4.03 0 0 0 -0.649,2.494 v 0.312 a 4.616,4.616 0 0 0 0.649,2.785 2.464,2.464 0 0 0 2.081,0.839 2.162,2.162 0 0 0 1.875,-0.97 4.588,4.588 0 0 0 0.679,-2.67 4.423,4.423 0 0 0 -0.679,-2.65 2.232,2.232 0 0 0 -1.915,-0.924 z"
       style="fill:#000000" />
    <path
       id="Path_3032"
       data-name="Path 3032"
       class="cls-2"
       d="m 158.739,111.09 a 4,4 0 0 1 -1.648,-0.332 3.113,3.113 0 0 1 -1.251,-1.024 h -0.1 a 12.461,12.461 0 0 1 0.1,1.534 v 3.8 h -1.4 v -13.382 h 1.137 l 0.194,1.263 h 0.068 a 3.244,3.244 0 0 1 1.256,-1.094 3.81,3.81 0 0 1 1.643,-0.337 3.414,3.414 0 0 1 2.836,1.255 6.686,6.686 0 0 1 -0.018,7.057 3.417,3.417 0 0 1 -2.817,1.26 z m -0.2,-8.385 a 2.48,2.48 0 0 0 -2.048,0.784 4.03,4.03 0 0 0 -0.649,2.494 v 0.312 a 4.616,4.616 0 0 0 0.649,2.785 2.464,2.464 0 0 0 2.081,0.839 2.162,2.162 0 0 0 1.875,-0.97 4.588,4.588 0 0 0 0.679,-2.67 4.423,4.423 0 0 0 -0.679,-2.65 2.231,2.231 0 0 0 -1.91,-0.924 z"
       style="fill:#000000" />
    <path
       id="Path_3033"
       data-name="Path 3033"
       class="cls-2"
       d="m 173.312,106.3 a 5.092,5.092 0 0 1 -1.138,3.527 4,4 0 0 1 -3.143,1.268 4.172,4.172 0 0 1 -2.2,-0.581 3.843,3.843 0 0 1 -1.482,-1.669 5.8,5.8 0 0 1 -0.523,-2.545 5.087,5.087 0 0 1 1.129,-3.518 4,4 0 0 1 3.135,-1.259 3.9,3.9 0 0 1 3.08,1.289 5.067,5.067 0 0 1 1.142,3.488 z m -7.037,0 a 4.384,4.384 0 0 0 0.708,2.7 2.809,2.809 0 0 0 4.167,0 4.36,4.36 0 0 0 0.713,-2.7 4.294,4.294 0 0 0 -0.713,-2.676 2.5,2.5 0 0 0 -2.1,-0.914 2.462,2.462 0 0 0 -2.073,0.9 4.344,4.344 0 0 0 -0.702,2.69 z"
       style="fill:#000000" />
    <path
       id="Path_3034"
       data-name="Path 3034"
       class="cls-2"
       d="m 180.224,101.518 a 5.5,5.5 0 0 1 1.1,0.1 l -0.193,1.3 a 4.8,4.8 0 0 0 -1.012,-0.127 2.467,2.467 0 0 0 -1.917,0.91 3.324,3.324 0 0 0 -0.8,2.268 v 4.955 H 176 v -9.236 h 1.154 l 0.161,1.71 h 0.067 a 4.056,4.056 0 0 1 1.239,-1.39 2.786,2.786 0 0 1 1.6,-0.49 z"
       style="fill:#000000" />
    <path
       id="Path_3035"
       data-name="Path 3035"
       class="cls-2"
       d="m 187.062,109.936 a 4.53,4.53 0 0 0 0.717,-0.055 4.647,4.647 0 0 0 0.548,-0.113 v 1.07 a 2.613,2.613 0 0 1 -0.67,0.181 5.124,5.124 0 0 1 -0.8,0.071 q -2.679,0 -2.679,-2.822 v -5.5 h -1.324 V 102.1 l 1.324,-0.581 0.589,-1.973 h 0.809 v 2.141 h 2.68 v 1.087 h -2.68 v 5.436 a 1.868,1.868 0 0 0 0.4,1.28 1.378,1.378 0 0 0 1.086,0.446 z"
       style="fill:#000000" />
    <path
       id="Path_3036"
       data-name="Path 3036"
       class="cls-2"
       d="m 194.238,111.09 a 4.243,4.243 0 0 1 -3.232,-1.246 4.833,4.833 0 0 1 -1.184,-3.464 5.352,5.352 0 0 1 1.1,-3.548 3.651,3.651 0 0 1 2.953,-1.314 3.48,3.48 0 0 1 2.747,1.141 4.374,4.374 0 0 1 1.012,3.013 v 0.885 h -6.363 a 3.665,3.665 0 0 0 0.822,2.468 2.839,2.839 0 0 0 2.2,0.844 7.453,7.453 0 0 0 2.95,-0.624 v 1.247 a 7.377,7.377 0 0 1 -1.4,0.459 7.875,7.875 0 0 1 -1.6,0.139 z m -0.379,-8.4 a 2.282,2.282 0 0 0 -1.774,0.726 3.329,3.329 0 0 0 -0.78,2 h 4.829 a 3.073,3.073 0 0 0 -0.59,-2.026 2.077,2.077 0 0 0 -1.685,-0.7 z"
       style="fill:#000000" />
    <path
       id="Path_3037"
       data-name="Path 3037"
       class="cls-2"
       d="m 206.65,109.684 h -0.075 a 3.289,3.289 0 0 1 -2.9,1.406 3.428,3.428 0 0 1 -2.819,-1.238 5.452,5.452 0 0 1 -1.007,-3.523 5.548,5.548 0 0 1 1.011,-3.548 3.4,3.4 0 0 1 2.815,-1.263 3.359,3.359 0 0 1 2.882,1.365 h 0.109 l -0.059,-0.666 -0.033,-0.649 V 97.81 h 1.4 v 13.112 h -1.138 z m -2.8,0.235 a 2.55,2.55 0 0 0 2.077,-0.779 3.94,3.94 0 0 0 0.645,-2.516 v -0.3 a 4.638,4.638 0 0 0 -0.653,-2.8 2.485,2.485 0 0 0 -2.086,-0.839 2.142,2.142 0 0 0 -1.883,0.957 4.754,4.754 0 0 0 -0.654,2.7 4.57,4.57 0 0 0 0.649,2.672 2.2,2.2 0 0 0 1.908,0.905 z"
       style="fill:#000000" />
    <path
       id="Path_3038"
       data-name="Path 3038"
       class="cls-2"
       d="m 220.411,101.534 a 3.437,3.437 0 0 1 2.828,1.243 6.659,6.659 0 0 1 -0.009,7.053 3.42,3.42 0 0 1 -2.819,1.26 3.993,3.993 0 0 1 -1.647,-0.332 3.109,3.109 0 0 1 -1.252,-1.024 h -0.1 l -0.295,1.188 h -1 V 97.81 h 1.4 v 3.184 q 0,1.073 -0.067,1.922 h 0.067 a 3.32,3.32 0 0 1 2.894,-1.382 z m -0.2,1.171 a 2.446,2.446 0 0 0 -2.065,0.822 6.338,6.338 0 0 0 0.017,5.553 2.466,2.466 0 0 0 2.082,0.839 2.16,2.16 0 0 0 1.921,-0.939 4.832,4.832 0 0 0 0.632,-2.7 4.645,4.645 0 0 0 -0.632,-2.689 2.239,2.239 0 0 0 -1.957,-0.886 z"
       style="fill:#000000" />
    <path
       id="Path_3039"
       data-name="Path 3039"
       class="cls-2"
       d="m 225.458,101.686 h 1.5 l 2.022,5.267 a 20.027,20.027 0 0 1 0.826,2.6 h 0.067 q 0.11,-0.431 0.46,-1.471 0.35,-1.04 2.287,-6.4 h 1.5 l -3.968,10.518 a 5.256,5.256 0 0 1 -1.378,2.212 2.933,2.933 0 0 1 -1.934,0.653 5.645,5.645 0 0 1 -1.264,-0.143 V 113.8 a 4.9,4.9 0 0 0 1.036,0.1 2.137,2.137 0 0 0 2.056,-1.618 l 0.514,-1.314 z"
       style="fill:#000000" />
  </g>
</svg>
