<?xml version="1.0" encoding="utf-8"?>
<!-- Generator: Adobe Illustrator 18.1.1, SVG Export Plug-In . SVG Version: 6.00 Build 0)  -->
<!DOCTYPE svg PUBLIC "-//W3C//DTD SVG 1.1//EN" "http://www.w3.org/Graphics/SVG/1.1/DTD/svg11.dtd">
<svg version="1.1" id="Layer_1" xmlns="http://www.w3.org/2000/svg" xmlns:xlink="http://www.w3.org/1999/xlink" x="0px" y="0px"
	 viewBox="0 0 128 128" enable-background="new 0 0 128 128" xml:space="preserve">
<g enable-background="new    ">
	<g>
		<defs>
			<rect id="SVGID_1_" x="18.5" y="4.2" width="87" height="104.1"/>
		</defs>
		<clipPath id="SVGID_2_">
			<use xlink:href="#SVGID_1_"  overflow="visible"/>
		</clipPath>
		<g clip-path="url(#SVGID_2_)">
			<defs>
				<rect id="SVGID_3_" x="-82.4" y="-1673.7" width="2122.2" height="8119"/>
			</defs>
			<clipPath id="SVGID_4_">
				<use xlink:href="#SVGID_3_"  overflow="visible"/>
			</clipPath>
			<g clip-path="url(#SVGID_4_)">
				<defs>
					<path id="SVGID_5_" d="M62.7,107.8C39.3,108,20.1,89.3,19.9,65.9c-0.2-23.4,18.5-42.5,41.9-42.7c23.4-0.2,42.5,18.5,42.7,41.9
						C104.8,88.5,86,107.6,62.7,107.8"/>
				</defs>
				<clipPath id="SVGID_6_">
					<use xlink:href="#SVGID_5_"  overflow="visible"/>
				</clipPath>
				<g clip-path="url(#SVGID_6_)">
					<defs>
						<rect id="SVGID_7_" x="18.5" y="4.2" width="87" height="104.1"/>
					</defs>
					<clipPath id="SVGID_8_">
						<use xlink:href="#SVGID_7_"  overflow="visible"/>
					</clipPath>
					<rect x="12.1" y="15.4" clip-path="url(#SVGID_8_)" fill="#FFDE44" width="100.2" height="100.1"/>
				</g>
			</g>
		</g>
		<g clip-path="url(#SVGID_2_)">
			<defs>
				<rect id="SVGID_9_" x="-82.4" y="-1673.7" width="2122.2" height="8119"/>
			</defs>
			<clipPath id="SVGID_10_">
				<use xlink:href="#SVGID_9_"  overflow="visible"/>
			</clipPath>
			<g clip-path="url(#SVGID_10_)">
				<defs>
					<polyline id="SVGID_11_" points="78.3,18.3 78.3,52.2 108.2,52.2 78.3,18.3 					"/>
				</defs>
				<clipPath id="SVGID_12_">
					<use xlink:href="#SVGID_11_"  overflow="visible"/>
				</clipPath>
				<g clip-path="url(#SVGID_12_)">
					<defs>
						<rect id="SVGID_13_" x="18.5" y="4.2" width="87" height="104.1"/>
					</defs>
					<clipPath id="SVGID_14_">
						<use xlink:href="#SVGID_13_"  overflow="visible"/>
					</clipPath>
					<g clip-path="url(#SVGID_14_)" enable-background="new    ">
						<g>
							<defs>
								<rect id="SVGID_15_" x="77.6" y="22.8" width="28" height="29.5"/>
							</defs>
							<clipPath id="SVGID_16_">
								<use xlink:href="#SVGID_15_"  overflow="visible"/>
							</clipPath>
							<g clip-path="url(#SVGID_16_)">
								<defs>
									<path id="SVGID_17_" d="M63,108.2c-23.4,0.2-42.5-18.5-42.7-41.9s18.5-42.5,41.9-42.7c23.4-0.2,42.5,18.5,42.7,41.9
										S86.4,107.9,63,108.2"/>
								</defs>
								<clipPath id="SVGID_18_">
									<use xlink:href="#SVGID_17_"  overflow="visible"/>
								</clipPath>
								<g clip-path="url(#SVGID_18_)">
									<defs>
										<rect id="SVGID_19_" x="77.6" y="18.2" width="28" height="34.2"/>
									</defs>
									<clipPath id="SVGID_20_">
										<use xlink:href="#SVGID_19_"  overflow="visible"/>
									</clipPath>
									<rect x="12.5" y="15.8" clip-path="url(#SVGID_20_)" fill="#3F8CF4" width="100.2" height="100.1"/>
								</g>
							</g>
						</g>
					</g>
				</g>
			</g>
		</g>
		<g clip-path="url(#SVGID_2_)">
			<defs>
				<rect id="SVGID_21_" x="-82.4" y="-1673.7" width="2122.2" height="8119"/>
			</defs>
			<clipPath id="SVGID_22_">
				<use xlink:href="#SVGID_21_"  overflow="visible"/>
			</clipPath>
			<g clip-path="url(#SVGID_22_)">
				<defs>
					<path id="SVGID_23_" d="M72.6,87.5H24.4l10.8,15.8c0,0,26,12.7,26.3,12.7c0.3-0.1,11.1-9.4,11.1-9.4V87.5"/>
				</defs>
				<clipPath id="SVGID_24_">
					<use xlink:href="#SVGID_23_"  overflow="visible"/>
				</clipPath>
				<g clip-path="url(#SVGID_24_)">
					<defs>
						<rect id="SVGID_25_" x="18.5" y="4.2" width="87" height="104.1"/>
					</defs>
					<clipPath id="SVGID_26_">
						<use xlink:href="#SVGID_25_"  overflow="visible"/>
					</clipPath>
					<g clip-path="url(#SVGID_26_)" enable-background="new    ">
						<g>
							<defs>
								<rect id="SVGID_27_" x="23.2" y="86.5" width="49.7" height="21.8"/>
							</defs>
							<clipPath id="SVGID_28_">
								<use xlink:href="#SVGID_27_"  overflow="visible"/>
							</clipPath>
							<g clip-path="url(#SVGID_28_)">
								<defs>
									<path id="SVGID_29_" d="M62.7,107.8C39.3,108,20.2,89.2,19.9,65.9c-0.2-23.4,18.5-42.5,41.9-42.7
										c23.4-0.2,42.5,18.5,42.7,41.9C104.8,88.4,86.1,107.5,62.7,107.8"/>
								</defs>
								<clipPath id="SVGID_30_">
									<use xlink:href="#SVGID_29_"  overflow="visible"/>
								</clipPath>
								<g clip-path="url(#SVGID_30_)">
									<defs>
										<rect id="SVGID_31_" x="23.2" y="86.5" width="49.7" height="21.8"/>
									</defs>
									<clipPath id="SVGID_32_">
										<use xlink:href="#SVGID_31_"  overflow="visible"/>
									</clipPath>
									<rect x="12.2" y="15.4" clip-path="url(#SVGID_32_)" fill="#3F8CF4" width="100.2" height="100.1"/>
								</g>
							</g>
						</g>
					</g>
				</g>
			</g>
		</g>
		<g clip-path="url(#SVGID_2_)">
			<defs>
				<rect id="SVGID_33_" x="-82.4" y="-1673.7" width="2122.2" height="8119"/>
			</defs>
			<clipPath id="SVGID_34_">
				<use xlink:href="#SVGID_33_"  overflow="visible"/>
			</clipPath>
			<g clip-path="url(#SVGID_34_)">
				<defs>
					<polyline id="SVGID_35_" points="48.5,25.2 48.5,52.2 16.5,52.2 21.1,33.8 30.2,15.3 39.1,15.8 45.8,19.7 48.5,25.2 					"/>
				</defs>
				<clipPath id="SVGID_36_">
					<use xlink:href="#SVGID_35_"  overflow="visible"/>
				</clipPath>
				<g clip-path="url(#SVGID_36_)">
					<defs>
						<rect id="SVGID_37_" x="18.5" y="4.2" width="87" height="104.1"/>
					</defs>
					<clipPath id="SVGID_38_">
						<use xlink:href="#SVGID_37_"  overflow="visible"/>
					</clipPath>
					<g clip-path="url(#SVGID_38_)" enable-background="new    ">
						<g>
							<defs>
								<rect id="SVGID_39_" x="18.5" y="22.8" width="31.1" height="29.5"/>
							</defs>
							<clipPath id="SVGID_40_">
								<use xlink:href="#SVGID_39_"  overflow="visible"/>
							</clipPath>
							<g clip-path="url(#SVGID_40_)">
								<defs>
									<path id="SVGID_41_" d="M62.7,107.8C39.3,108,20.1,89.3,19.9,65.9c-0.2-23.4,18.5-42.5,41.9-42.7s42.5,18.5,42.7,41.9
										C104.8,88.5,86,107.6,62.7,107.8"/>
								</defs>
								<clipPath id="SVGID_42_">
									<use xlink:href="#SVGID_41_"  overflow="visible"/>
								</clipPath>
								<g clip-path="url(#SVGID_42_)">
									<defs>
										<rect id="SVGID_43_" x="18.5" y="15.1" width="31.1" height="37.3"/>
									</defs>
									<clipPath id="SVGID_44_">
										<use xlink:href="#SVGID_43_"  overflow="visible"/>
									</clipPath>
									<rect x="12.2" y="15.4" clip-path="url(#SVGID_44_)" fill="#20A362" width="100.2" height="100.1"/>
								</g>
							</g>
						</g>
					</g>
				</g>
			</g>
		</g>
		<g clip-path="url(#SVGID_2_)">
			<defs>
				<rect id="SVGID_45_" x="-82.4" y="-1673.7" width="2122.2" height="8119"/>
			</defs>
			<clipPath id="SVGID_46_">
				<use xlink:href="#SVGID_45_"  overflow="visible"/>
			</clipPath>
			<g clip-path="url(#SVGID_46_)">
				<defs>
					<polyline id="SVGID_47_" points="78.3,57.7 110.5,57.7 110.5,81.5 78.3,81.5 					"/>
				</defs>
				<clipPath id="SVGID_48_">
					<use xlink:href="#SVGID_47_"  overflow="visible"/>
				</clipPath>
				<g clip-path="url(#SVGID_48_)">
					<defs>
						<rect id="SVGID_49_" x="18.5" y="4.2" width="87" height="104.1"/>
					</defs>
					<clipPath id="SVGID_50_">
						<use xlink:href="#SVGID_49_"  overflow="visible"/>
					</clipPath>
					<g clip-path="url(#SVGID_50_)" enable-background="new    ">
						<g>
							<defs>
								<rect id="SVGID_51_" x="77.6" y="57" width="28" height="24.9"/>
							</defs>
							<clipPath id="SVGID_52_">
								<use xlink:href="#SVGID_51_"  overflow="visible"/>
							</clipPath>
							<g clip-path="url(#SVGID_52_)">
								<defs>
									<path id="SVGID_53_" d="M62.6,107.6C39.2,107.8,20.1,89,19.9,65.7C19.6,42.3,38.4,23.2,61.8,23
										c23.4-0.2,42.5,18.5,42.7,41.9C104.8,88.2,86,107.3,62.6,107.6"/>
								</defs>
								<clipPath id="SVGID_54_">
									<use xlink:href="#SVGID_53_"  overflow="visible"/>
								</clipPath>
								<g clip-path="url(#SVGID_54_)">
									<defs>
										<rect id="SVGID_55_" x="77.6" y="57" width="28" height="24.9"/>
									</defs>
									<clipPath id="SVGID_56_">
										<use xlink:href="#SVGID_55_"  overflow="visible"/>
									</clipPath>
									<rect x="12.1" y="15.2" clip-path="url(#SVGID_56_)" fill="#20A362" width="100.2" height="100.1"/>
								</g>
							</g>
						</g>
					</g>
				</g>
			</g>
		</g>
		<g clip-path="url(#SVGID_2_)">
			<defs>
				<rect id="SVGID_57_" x="-82.4" y="-1673.7" width="2122.2" height="8119"/>
			</defs>
			<clipPath id="SVGID_58_">
				<use xlink:href="#SVGID_57_"  overflow="visible"/>
			</clipPath>
			<g clip-path="url(#SVGID_58_)">
				<defs>
					<polyline id="SVGID_59_" points="119.3,87.5 119.3,81.8 78.3,81.8 78.3,57.9 118.3,57.9 118.3,52.2 78.3,52.2 78.3,20.6 
						72.6,20.6 72.6,52.2 54.2,52.2 54.2,-4.5 48.5,-4.5 48.5,52.2 10.2,52.2 10.2,57.9 72.6,57.9 72.6,81.8 5.4,81.8 5.4,87.5 
						72.6,87.5 72.6,111.9 78.3,111.9 78.3,87.5 119.3,87.5 					"/>
				</defs>
				<clipPath id="SVGID_60_">
					<use xlink:href="#SVGID_59_"  overflow="visible"/>
				</clipPath>
				<g clip-path="url(#SVGID_60_)">
					<defs>
						<rect id="SVGID_61_" x="18.5" y="4.2" width="87" height="104.1"/>
					</defs>
					<clipPath id="SVGID_62_">
						<use xlink:href="#SVGID_61_"  overflow="visible"/>
					</clipPath>
					<g clip-path="url(#SVGID_62_)" enable-background="new    ">
						<g>
							<defs>
								<rect id="SVGID_63_" x="18.5" y="22.8" width="87" height="85.4"/>
							</defs>
							<clipPath id="SVGID_64_">
								<use xlink:href="#SVGID_63_"  overflow="visible"/>
							</clipPath>
							<g clip-path="url(#SVGID_64_)">
								<defs>
									<path id="SVGID_65_" d="M62.8,107.8C39.4,108.1,20.3,89.3,20,65.9c-0.2-23.4,18.5-42.5,41.9-42.7
										c23.4-0.2,42.5,18.5,42.7,41.9C104.9,88.5,86.1,107.6,62.8,107.8"/>
								</defs>
								<clipPath id="SVGID_66_">
									<use xlink:href="#SVGID_65_"  overflow="visible"/>
								</clipPath>
								<g clip-path="url(#SVGID_66_)">
									<defs>
										<rect id="SVGID_67_" x="18.5" y="4.2" width="87" height="104.1"/>
									</defs>
									<clipPath id="SVGID_68_">
										<use xlink:href="#SVGID_67_"  overflow="visible"/>
									</clipPath>
									<rect x="12.3" y="15.5" clip-path="url(#SVGID_68_)" fill="#EEEEEE" width="100.2" height="100.1"/>
								</g>
							</g>
						</g>
					</g>
				</g>
			</g>
		</g>
		<g clip-path="url(#SVGID_2_)">
			<defs>
				<rect id="SVGID_69_" x="-82.4" y="-1673.7" width="2122.2" height="8119"/>
			</defs>
			<clipPath id="SVGID_70_">
				<use xlink:href="#SVGID_69_"  overflow="visible"/>
			</clipPath>
			<g clip-path="url(#SVGID_70_)">
				<defs>
					<rect id="SVGID_71_" x="18.5" y="4.2" width="87" height="104.1"/>
				</defs>
				<clipPath id="SVGID_72_">
					<use xlink:href="#SVGID_71_"  overflow="visible"/>
				</clipPath>
				
					<line clip-path="url(#SVGID_72_)" fill="none" stroke="#DC493C" stroke-width="18.0634" stroke-miterlimit="10" x1="73.8" y1="52.6" x2="73.8" y2="17.7"/>
			</g>
		</g>
		<g clip-path="url(#SVGID_2_)">
			<defs>
				<rect id="SVGID_73_" x="-82.4" y="-1673.7" width="2122.2" height="8119"/>
			</defs>
			<clipPath id="SVGID_74_">
				<use xlink:href="#SVGID_73_"  overflow="visible"/>
			</clipPath>
			<g clip-path="url(#SVGID_74_)">
				<defs>
					<polyline id="SVGID_75_" points="58.2,19.8 89.4,19.8 73.8,4.2 58.2,19.8 					"/>
				</defs>
				<clipPath id="SVGID_76_">
					<use xlink:href="#SVGID_75_"  overflow="visible"/>
				</clipPath>
				<g clip-path="url(#SVGID_76_)">
					<defs>
						<rect id="SVGID_77_" x="18.5" y="4.2" width="87" height="104.1"/>
					</defs>
					<clipPath id="SVGID_78_">
						<use xlink:href="#SVGID_77_"  overflow="visible"/>
					</clipPath>
					<rect x="50.4" y="-3.5" clip-path="url(#SVGID_78_)" fill="#DC4A3D" width="46.7" height="31.1"/>
				</g>
			</g>
		</g>
		<g clip-path="url(#SVGID_2_)">
			<defs>
				<rect id="SVGID_79_" x="-82.4" y="-1673.7" width="2122.2" height="8119"/>
			</defs>
			<clipPath id="SVGID_80_">
				<use xlink:href="#SVGID_79_"  overflow="visible"/>
			</clipPath>
			<g clip-path="url(#SVGID_80_)">
				<defs>
					<polyline id="SVGID_81_" points="89.4,19.8 73.8,4.2 58.2,19.8 64.6,19.8 64.6,48.9 34.5,79.8 34.5,111.7 52.8,111.7 
						52.8,87.2 82.9,56.4 82.9,19.8 89.4,19.8 					"/>
				</defs>
				<clipPath id="SVGID_82_">
					<use xlink:href="#SVGID_81_"  overflow="visible"/>
				</clipPath>
				<g clip-path="url(#SVGID_82_)">
					<defs>
						<rect id="SVGID_83_" x="18.5" y="4.2" width="87" height="104.1"/>
					</defs>
					<clipPath id="SVGID_84_">
						<use xlink:href="#SVGID_83_"  overflow="visible"/>
					</clipPath>
					<g clip-path="url(#SVGID_84_)" enable-background="new    ">
						<g>
							<defs>
								<rect id="SVGID_85_" x="34.1" y="22.8" width="55.9" height="85.4"/>
							</defs>
							<clipPath id="SVGID_86_">
								<use xlink:href="#SVGID_85_"  overflow="visible"/>
							</clipPath>
							<g clip-path="url(#SVGID_86_)">
								<defs>
									<path id="SVGID_87_" d="M62.7,107.8C39.3,108,20.1,89.3,19.9,65.9c-0.2-23.4,18.5-42.5,41.9-42.7
										c23.4-0.2,42.5,18.5,42.7,41.9C104.8,88.5,86,107.6,62.7,107.8"/>
								</defs>
								<clipPath id="SVGID_88_">
									<use xlink:href="#SVGID_87_"  overflow="visible"/>
								</clipPath>
								<g clip-path="url(#SVGID_88_)">
									<defs>
										<rect id="SVGID_89_" x="34.1" y="4.2" width="55.9" height="104.1"/>
									</defs>
									<clipPath id="SVGID_90_">
										<use xlink:href="#SVGID_89_"  overflow="visible"/>
									</clipPath>
									<rect x="12.1" y="15.4" clip-path="url(#SVGID_90_)" fill="#DC4B3E" width="100.2" height="100.1"/>
								</g>
							</g>
						</g>
					</g>
				</g>
			</g>
		</g>
	</g>
</g>
</svg>
